<svg width="258" height="46" viewBox="0 0 258 46" fill="none" xmlns="http://www.w3.org/2000/svg">
<path d="M89.4372 5.236C90.7634 5.86419 91.8104 6.70178 92.5084 7.81857C93.2064 8.93536 93.6252 10.2615 93.6252 11.7273C93.6252 13.1931 93.2762 14.5193 92.5084 15.6361C91.8104 16.7529 90.7634 17.5904 89.4372 18.2186C88.111 18.8468 86.5755 19.126 84.7607 19.126H81.2707V24.361H75.617V4.32861H84.7607C86.5755 4.32861 88.111 4.60781 89.4372 5.236ZM87.0641 13.8911C87.6225 13.4025 87.9715 12.7045 87.9715 11.7273C87.9715 10.8199 87.6923 10.0521 87.0641 9.56355C86.5057 9.07495 85.5983 8.79576 84.4117 8.79576H81.2707V14.6589H84.4117C85.5983 14.5891 86.4359 14.3797 87.0641 13.8911Z" fill="#22352C"/>
<path d="M108.702 20.3824H100.256L98.7205 24.2213H92.997L101.792 4.25879H107.376L116.17 24.2213H110.307L108.702 20.3824ZM107.027 16.2642L104.514 9.84272L101.931 16.1944H107.027V16.2642Z" fill="#22352C"/>
<path d="M136.691 4.32861V24.2912H132.084L123.29 13.6817V24.2912H117.776V4.32861H122.382L131.177 14.9381V4.32861H136.691Z" fill="#22352C"/>
<path d="M140.67 4.32861H150.093C152.256 4.32861 154.211 4.74741 155.886 5.585C157.561 6.42259 158.887 7.53937 159.795 9.07495C160.702 10.5407 161.191 12.3555 161.191 14.3099C161.191 16.3341 160.702 18.079 159.795 19.5448C158.887 21.0106 157.561 22.1972 155.886 23.0348C154.211 23.8724 152.256 24.2912 150.093 24.2912H140.67V4.32861ZM149.883 19.7542C151.558 19.7542 152.954 19.2656 154.001 18.2884C155.048 17.3112 155.537 15.9851 155.537 14.2401C155.537 12.5649 155.048 11.1689 154.001 10.1917C152.954 9.28435 151.558 8.86556 149.883 8.86556H146.324V19.824H149.883V19.7542Z" fill="#22352C"/>
<path d="M177.244 20.3824H168.799L167.263 24.2213H161.54L170.334 4.25879H175.918L184.713 24.2213H178.85L177.244 20.3824ZM175.639 16.2642L173.057 9.91252L170.474 16.2642H175.639Z" fill="#22352C"/>
<path d="M203.28 18.9864H200.208V24.2912H194.555V4.32861H203.698C205.513 4.32861 207.049 4.60781 208.375 5.236C209.701 5.86419 210.748 6.70178 211.446 7.81857C212.144 8.93536 212.493 10.2615 212.493 11.7273C212.493 13.1931 212.144 14.4495 211.516 15.4965C210.818 16.5435 209.911 17.381 208.654 18.0092L212.982 24.2912H206.979L203.28 18.9864ZM206.002 9.56355C205.443 9.07495 204.536 8.79576 203.349 8.79576H200.208V14.6589H203.349C204.536 14.6589 205.374 14.3797 206.002 13.8911C206.56 13.4025 206.909 12.7045 206.909 11.7273C206.839 10.7501 206.56 10.0521 206.002 9.56355Z" fill="#22352C"/>
<path d="M229.035 20.3824H220.59L219.054 24.2213H213.331L222.125 4.25879H227.709L236.434 24.2911H230.571L229.035 20.3824ZM227.36 16.2642L224.778 9.91252L222.195 16.2642H227.36Z" fill="#22352C"/>
<path d="M257.165 4.32861L248.649 24.2912H243.065L234.55 4.32861H240.622L246.066 17.3112L251.581 4.32861H257.165Z" fill="#22352C"/>
<path d="M26.6663 19.1743C26.8059 19.1743 26.9455 19.1743 27.0851 19.1743C28.2019 19.1743 29.1093 19.5931 29.9469 20.2911C30.5751 20.8495 31.1335 21.4777 31.8315 21.9663C33.018 22.8039 34.414 23.0831 35.5308 23.9905C36.4382 24.7582 36.9966 25.875 37.0664 27.0616C37.1362 28.2482 36.6476 29.4348 35.81 30.2724C35.0422 31.0402 34.065 31.459 33.018 31.6684C32.2503 31.808 31.4127 31.808 30.7147 31.5288C30.1563 31.2496 29.6677 30.761 29.3187 30.2724C28.3415 28.9462 27.7133 27.3408 26.5267 26.224C25.9683 25.6656 25.2005 25.2468 24.7817 24.5488C23.8046 23.2227 23.8046 20.8495 25.2005 19.7327C25.6193 19.3837 26.1079 19.2441 26.6663 19.1743Z" fill="#22352C"/>
<path d="M11.52 19.5234C11.7294 19.314 11.6596 19.3838 11.9388 19.1046C12.0086 19.0348 12.1482 18.8952 12.2878 18.8254C12.916 18.3368 13.614 17.7784 14.3817 17.4294C14.7307 17.22 15.0797 17.0804 15.4985 17.1502C15.9871 17.22 16.4059 17.6388 16.6851 18.0576C17.0341 18.5462 17.2435 19.0348 17.3133 19.5932C17.3831 20.2912 17.0341 20.9892 16.6851 21.5476C15.4985 23.502 13.6838 25.0375 12.2878 26.8523C11.1012 28.5275 9.21661 30.2027 6.98304 29.4349C5.79645 29.0161 4.81926 27.8993 4.67967 26.6429C4.54007 25.7355 4.74947 24.8281 5.16826 24.0603C5.58705 23.2228 6.14545 22.3852 6.91324 21.8268C7.96022 21.059 9.35621 20.8496 10.473 20.2912C10.822 20.1516 11.171 19.8026 11.52 19.5234Z" fill="#22352C"/>
<path d="M19.4771 33.2737C19.1281 33.2737 18.7791 33.2039 18.4301 33.2039C16.1965 32.7851 8.8676 31.6683 9.91459 34.1811C11.2408 37.1126 14.0327 39.5556 17.1737 38.2294C20.3147 36.8334 23.4556 33.2039 19.4771 33.2737Z" fill="black"/>
<path d="M26.108 42.0686C26.108 42.0686 22.967 44.6512 16.1965 42.0686C16.1965 40.0445 15.6381 37.6015 15.6381 37.1129C15.6381 36.6243 14.1723 37.1129 14.1723 37.1129C14.1723 37.1129 14.3817 41.5102 14.1723 42.2082C12.7764 42.5572 9.7052 43.325 8.44881 41.3009C7.19243 39.2767 7.96022 44.4418 10.9616 44.4418C13.9629 44.4418 15.2891 43.5344 15.2891 43.5344C15.2891 43.5344 18.5697 44.9304 21.3616 44.9304C24.1536 44.9304 29.0396 41.4404 26.108 42.0686Z" fill="black"/>
<path d="M15.5683 6.33129C15.5683 6.33129 13.3347 -4.83657 4.26086 2.49234C-3.48684 8.70446 1.3991 14.9864 2.93468 16.7314C3.28367 17.0804 3.77227 17.0804 4.19106 16.8012C4.74945 16.3126 5.72664 15.2656 7.33202 13.032C10.6126 8.35546 15.5683 7.72727 15.5683 6.33129Z" fill="black"/>
<path d="M37.0665 8.3555C37.0665 8.3555 36.6477 -1.62577 46.0705 0.468199C55.4934 2.56217 58.076 15.6146 49.9793 22.1757C48.0249 23.7811 37.0665 11.4965 37.0665 8.3555Z" fill="black"/>
<path d="M83.9231 43.4175H78.758L77.711 45.7907H75.7566L80.4331 35.4604H82.3177L86.9942 45.7907H84.9701L83.9231 43.4175ZM83.2949 41.882L81.3405 37.345L79.3861 41.882H83.2949Z" fill="#99A19E"/>
<path d="M106.329 41.3236C106.678 41.7424 106.817 42.3008 106.817 42.929C106.817 43.8363 106.468 44.5343 105.84 45.0229C105.142 45.5115 104.165 45.7907 102.908 45.7907H98.0225V35.4604H102.629C103.816 35.4604 104.723 35.6698 105.351 36.1584C105.98 36.647 106.329 37.2752 106.329 38.1128C106.329 38.6712 106.189 39.09 105.91 39.5088C105.631 39.9276 105.282 40.2068 104.793 40.4162C105.491 40.6256 105.98 40.9048 106.329 41.3236ZM99.9071 39.8578H102.49C103.118 39.8578 103.606 39.7182 103.886 39.5088C104.235 39.2296 104.374 38.8806 104.374 38.392C104.374 37.9034 104.235 37.5544 103.886 37.2752C103.537 36.996 103.118 36.9262 102.49 36.9262H99.9071V39.8578ZM104.933 42.7894C104.933 41.8122 104.235 41.2538 102.908 41.2538H99.9769V44.3249H102.908C104.235 44.3249 104.933 43.8363 104.933 42.7894Z" fill="#99A19E"/>
<path d="M125.872 37.0658H122.452V45.7907H120.568V37.0658H117.147V35.4604H125.942V37.0658H125.872Z" fill="#99A19E"/>
<path d="M138.785 45.3019C137.948 44.8133 137.25 44.1851 136.761 43.4173C136.272 42.5797 136.063 41.6723 136.063 40.6951C136.063 39.7179 136.272 38.8105 136.761 37.9729C137.25 37.1354 137.878 36.5072 138.785 36.0884C139.623 35.5998 140.6 35.3904 141.647 35.3904C142.694 35.3904 143.671 35.5998 144.509 36.0884C145.346 36.577 146.044 37.2052 146.533 37.9729C147.021 38.8105 147.231 39.7179 147.231 40.6951C147.231 41.7421 147.021 42.6495 146.533 43.4173C146.044 44.2549 145.416 44.8831 144.509 45.3019C143.671 45.7905 142.694 45.9998 141.647 45.9998C140.6 45.9998 139.693 45.7207 138.785 45.3019ZM143.531 43.8361C144.09 43.5569 144.509 43.0683 144.858 42.5099C145.207 41.9515 145.346 41.3233 145.346 40.6253C145.346 39.9273 145.207 39.2991 144.858 38.7407C144.509 38.1823 144.09 37.7636 143.531 37.4146C142.973 37.1354 142.345 36.926 141.647 36.926C140.949 36.926 140.321 37.0656 139.762 37.4146C139.204 37.6938 138.785 38.1823 138.436 38.7407C138.087 39.2991 137.948 39.9273 137.948 40.6253C137.948 41.3233 138.087 41.9515 138.436 42.5099C138.785 43.0683 139.204 43.4871 139.762 43.8361C140.321 44.1153 140.949 44.3247 141.647 44.3247C142.345 44.2549 142.973 44.1153 143.531 43.8361Z" fill="#99A19E"/>
<path d="M172.149 35.4604V45.7907H158.818V35.4604H160.702V44.1853H164.541V35.4604H166.426V44.1853H170.195V35.4604H172.149Z" fill="#99A19E"/>
<path d="M188.412 41.4632H186.458V45.8605H184.573V35.4604H186.458V39.788H188.412L191.414 35.4604H193.438L189.878 40.486L193.578 45.8605H191.414L188.412 41.4632Z" fill="#99A19E"/>
<path d="M206.281 45.3019C205.443 44.8133 204.745 44.1851 204.257 43.4173C203.768 42.5797 203.559 41.6723 203.559 40.6951C203.559 39.7179 203.768 38.8105 204.257 37.9729C204.745 37.1354 205.374 36.5072 206.281 36.0884C207.119 35.5998 208.096 35.3904 209.143 35.3904C210.19 35.3904 211.167 35.5998 212.004 36.0884C212.842 36.577 213.54 37.2052 214.029 37.9729C214.517 38.8105 214.727 39.7179 214.727 40.6951C214.727 41.7421 214.517 42.6495 214.029 43.4173C213.54 44.2549 212.912 44.8831 212.004 45.3019C211.167 45.7905 210.19 45.9998 209.143 45.9998C208.096 45.9998 207.119 45.7207 206.281 45.3019ZM211.027 43.8361C211.586 43.5569 212.004 43.0683 212.353 42.5099C212.702 41.9515 212.842 41.3233 212.842 40.6253C212.842 39.9273 212.702 39.2991 212.353 38.7407C212.004 38.1823 211.586 37.7636 211.027 37.4146C210.469 37.1354 209.841 36.926 209.143 36.926C208.445 36.926 207.817 37.0656 207.258 37.4146C206.7 37.6938 206.281 38.1823 205.932 38.7407C205.583 39.2991 205.443 39.9273 205.443 40.6253C205.443 41.3233 205.583 41.9515 205.932 42.5099C206.281 43.0683 206.7 43.4871 207.258 43.8361C207.817 44.1153 208.445 44.3247 209.143 44.3247C209.841 44.2549 210.469 44.1153 211.027 43.8361Z" fill="#99A19E"/>
<path d="M234.899 35.4604V45.7907H233.014V37.0658H228.896L228.826 39.6484C228.756 41.1142 228.686 42.3008 228.477 43.2082C228.268 44.1155 227.988 44.8135 227.57 45.2323C227.151 45.7209 226.592 45.9303 225.825 45.9303C225.545 45.9303 225.196 45.8605 224.778 45.7907L224.917 44.1155C225.057 44.1853 225.196 44.1853 225.336 44.1853C225.964 44.1853 226.383 43.8363 226.592 43.1384C226.872 42.4404 227.011 41.3236 227.081 39.788L227.221 35.5302H234.899V35.4604Z" fill="#99A19E"/>
<path d="M254.163 43.4175H248.998L247.951 45.7907H245.997L250.673 35.4604H252.558L257.234 45.7907H255.21L254.163 43.4175ZM253.535 41.882L251.581 37.345L249.626 41.882H253.535Z" fill="#99A19E"/>
</svg>
